<?xml version="1.0" encoding="utf-8"?>
<svg version="1.1" xmlns:xlink="http://www.w3.org/1999/xlink" width="36px" height="36px" xmlns="http://www.w3.org/2000/svg">
  <g transform="matrix(1 0 0 1 -1135 -23 )">
    <path d="M 25.1517857142857 31.6707589285714  C 27.3616071428571 30.4988839285714  29.1763392857143 28.9084821428571  30.5959821428571 26.8995535714286  C 30.3013392857143 24.8236607142857  29.7154017857143 23.0993303571429  28.8381696428571 21.7265625  C 27.9609375 20.3537946428571  26.7254464285714 19.5602678571429  25.1316964285714 19.3459821428571  C 24.234375 20.3370535714286  23.1662946428571 21.1104910714286  21.9274553571429 21.6662946428571  C 20.6886160714286 22.2220982142857  19.3794642857143 22.5  18 22.5  C 16.6205357142857 22.5  15.3113839285714 22.2220982142857  14.0725446428571 21.6662946428571  C 12.8337053571429 21.1104910714286  11.765625 20.3370535714286  10.8683035714286 19.3459821428571  C 9.27455357142857 19.5602678571429  8.0390625 20.3537946428571  7.16183035714286 21.7265625  C 6.28459821428572 23.0993303571429  5.69866071428571 24.8236607142857  5.40401785714286 26.8995535714286  C 6.82366071428571 28.9084821428571  8.63839285714286 30.4988839285714  10.8482142857143 31.6707589285714  C 13.0580357142857 32.8426339285714  15.4419642857143 33.4285714285714  18 33.4285714285714  C 20.5580357142857 33.4285714285714  22.9419642857143 32.8426339285714  25.1517857142857 31.6707589285714  Z M 23.4542410714286 18.3113839285714  C 24.9609375 16.8046875  25.7142857142857 14.9866071428571  25.7142857142857 12.8571428571429  C 25.7142857142857 10.7276785714286  24.9609375 8.90959821428572  23.4542410714286 7.40290178571428  C 21.9475446428571 5.89620535714286  20.1294642857143 5.14285714285714  18 5.14285714285714  C 15.8705357142857 5.14285714285714  14.0524553571429 5.89620535714286  12.5457589285714 7.40290178571428  C 11.0390625 8.90959821428572  10.2857142857143 10.7276785714286  10.2857142857143 12.8571428571429  C 10.2857142857143 14.9866071428571  11.0390625 16.8046875  12.5457589285714 18.3113839285714  C 14.0524553571429 19.8180803571429  15.8705357142857 20.5714285714286  18 20.5714285714286  C 20.1294642857143 20.5714285714286  21.9475446428571 19.8180803571429  23.4542410714286 18.3113839285714  Z M 34.5736607142857 11.0089285714286  C 35.5245535714286 13.2321428571429  36 15.5625  36 18  C 36 20.4375  35.5245535714286 22.7645089285714  34.5736607142857 24.9810267857143  C 33.6227678571429 27.1975446428571  32.3470982142857 29.1127232142857  30.7466517857143 30.7265625  C 29.1462053571429 32.3404017857143  27.234375 33.6227678571429  25.0111607142857 34.5736607142857  C 22.7879464285714 35.5245535714286  20.4508928571429 36  18 36  C 15.5625 36  13.2321428571429 35.5245535714286  11.0089285714286 34.5736607142857  C 8.78571428571429 33.6227678571429  6.87053571428571 32.34375  5.26339285714286 30.7366071428571  C 3.65625 29.1294642857143  2.37723214285714 27.2142857142857  1.42633928571429 24.9910714285714  C 0.475446428571428 22.7678571428571  0 20.4375  0 18  C 0 15.5625  0.475446428571428 13.2321428571429  1.42633928571429 11.0089285714286  C 2.37723214285714 8.78571428571428  3.65625 6.87053571428572  5.26339285714286 5.26339285714286  C 6.87053571428571 3.65625  8.78571428571429 2.37723214285714  11.0089285714286 1.42633928571429  C 13.2321428571429 0.475446428571428  15.5625 0  18 0  C 20.4375 0  22.7678571428571 0.475446428571428  24.9910714285714 1.42633928571429  C 27.2142857142857 2.37723214285714  29.1294642857143 3.65625  30.7366071428571 5.26339285714286  C 32.34375 6.87053571428572  33.6227678571429 8.78571428571428  34.5736607142857 11.0089285714286  Z " fill-rule="nonzero" fill="#000000" stroke="none" transform="matrix(1 0 0 1 1135 23 )" />
  </g>
</svg>