<?xml version="1.0" encoding="utf-8"?>
<svg version="1.1" xmlns:xlink="http://www.w3.org/1999/xlink" width="32px" height="31px" xmlns="http://www.w3.org/2000/svg">
  <g transform="matrix(1 0 0 1 -5 -10 )">
    <path d="M 31.2400513478819 14.4891304347826  C 31.7466837826273 15.0366847826087  32 15.6754981884058  32 16.4055706521739  C 32 17.1216032608696  31.7466837826273 17.7533967391304  31.2400513478819 18.3009510869565  L 29.6996148908858 19.8804347826087  C 29.1792896876337 20.4139492753623  28.5562687205819 20.6807065217391  27.8305519897304 20.6807065217391  C 27.0911424903723 20.6807065217391  26.4749679075738 20.4139492753623  25.982028241335 19.8804347826087  L 20 13.7099184782609  L 20 28.5360054347826  C 19.9435173299101 29.2660778985507  19.6867779204108 29.8592617753623  19.1732991014121 30.3155570652174  C 18.6598202824133 30.7718523550725  18.0402225074882 31  17.3145057766367 31  L 14.6854942233633 31  C 13.9597774925118 31  13.3401797175866 30.7718523550725  12.8267008985879 30.3155570652174  C 12.3132220795892 29.8592617753623  12.0564826700899 29.2660778985507  12 28.5360054347826  L 12 13.7099184782609  L 6.01797175866496 19.8804347826087  C 5.52503209242619 20.4139492753623  4.90885750962773 20.6807065217391  4.16944801026958 20.6807065217391  C 3.43003851091142 20.6807065217391  2.81386392811297 20.4139492753623  2.3209242618742 19.8804347826087  L 0.780487804878049 18.3009510869565  C 0.260162601626016 17.7674365942029  0 17.135643115942  0 16.4055706521739  C 0 15.6614583333333  0.260162601626016 15.0226449275362  0.780487804878049 14.4891304347826  L 14.1514762516046 0.77921195652174  C 14.6307231493368 0.259737318840579  15.2468977321352 0  16 0  C 16.7394094993582 0  17.3624304664099 0.259737318840579  17.8690629011553 0.77921195652174  L 31.2400513478819 14.4891304347826  Z " fill-rule="nonzero" fill="#000000" stroke="none" transform="matrix(1 0 0 1 5 10 )" />
  </g>
</svg>