<?xml version="1.0" encoding="utf-8"?>
<svg version="1.1" xmlns:xlink="http://www.w3.org/1999/xlink" width="60px" height="73px" xmlns="http://www.w3.org/2000/svg">
  <g transform="matrix(1 0 0 1 -939 -170 )">
    <path d="M 16.6666666666667 23.2272727272727  L 16.6666666666667 34  L 43 34  L 43 23.2272727272727  C 43.3333333333333 19.563446969697  42.03125 16.4353693181818  39.4270833333333 13.8430397727273  C 36.8229166666667 11.2507102272727  33.6805555555556 9.95454545454545  30 9.95454545454545  C 26.3194444444444 9.95454545454545  23.1770833333333 11.2507102272727  20.5729166666667 13.8430397727273  C 17.96875 16.4353693181818  16.6666666666667 19.563446969697  16.6666666666667 23.2272727272727  Z M 58.5416666666667 34.6335227272727  C 59.5138888888889 35.6013257575758  60 36.7765151515151  60 38.1590909090909  L 60 68.0227272727273  C 60 69.405303030303  59.5138888888889 70.5804924242424  58.5416666666667 71.5482954545455  C 57.5694444444445 72.5160984848485  56.3888888888889 73  55 73  L 5 73  C 3.61111111111111 73  2.43055555555556 72.5160984848485  1.45833333333333 71.5482954545455  C 0.486111111111111 70.5804924242424  0 69.405303030303  0 68.0227272727273  L 0 38.1590909090909  C 0 36.7765151515151  0.486111111111111 35.6013257575758  1.45833333333333 34.6335227272727  C 2.43055555555556 33.6657196969697  3.61111111111111 33.1818181818182  5 33.1818181818182  L 6.66666666666667 33.1818181818182  L 6.66666666666667 23.2272727272727  C 6.66666666666667 16.8674242424242  8.95833333333333 11.40625  13.5416666666667 6.84375  C 18.125 2.28125  23.6111111111111 0  30 0  C 36.3888888888889 0  41.875 2.28125  46.4583333333333 6.84375  C 51.0416666666667 11.40625  53.3333333333333 16.8674242424242  53.3333333333333 23.2272727272727  L 53.3333333333333 33.1818181818182  L 55 33.1818181818182  C 56.3888888888889 33.1818181818182  57.5694444444445 33.6657196969697  58.5416666666667 34.6335227272727  Z " fill-rule="nonzero" fill="#f2f2f2" stroke="none" transform="matrix(1 0 0 1 939 170 )" />
  </g>
</svg>