<?xml version="1.0" encoding="utf-8"?>
<svg version="1.1" xmlns:xlink="http://www.w3.org/1999/xlink" width="31px" height="24px" xmlns="http://www.w3.org/2000/svg">
  <g transform="matrix(1 0 0 1 -55 -1022 )">
    <path d="M 30.44 3.31313131313131  C 30.8133333333333 3.69023569023569  31 4.14814814814815  31 4.68686868686869  C 31 5.22558922558922  30.8133333333333 5.68350168350168  30.44 6.06060606060606  L 15.96 20.6868686868687  L 13.24 23.4343434343434  C 12.8666666666667 23.8114478114478  12.4133333333333 24  11.88 24  C 11.3466666666667 24  10.8933333333333 23.8114478114478  10.52 23.4343434343434  L 7.8 20.6868686868687  L 0.56 13.3737373737374  C 0.186666666666667 12.996632996633  0 12.5387205387205  0 12  C 0 11.4612794612795  0.186666666666667 11.003367003367  0.56 10.6262626262626  L 3.28 7.87878787878788  C 3.65333333333333 7.5016835016835  4.10666666666667 7.31313131313131  4.64 7.31313131313131  C 5.17333333333333 7.31313131313131  5.62666666666667 7.5016835016835  6 7.87878787878788  L 11.88 13.8383838383838  L 25 0.565656565656566  C 25.3733333333333 0.188552188552188  25.8266666666667 0  26.36 0  C 26.8933333333333 0  27.3466666666667 0.188552188552188  27.72 0.565656565656566  L 30.44 3.31313131313131  Z " fill-rule="nonzero" fill="#000000" stroke="none" transform="matrix(1 0 0 1 55 1022 )" />
  </g>
</svg>